{"title":"Broken.Horses.2015.WEBRip.480p.x264.AAC-VYTO [P2PDL]","uid":12330316,"size":373921973,"categoryP":"video","categoryS":"movies","magnet":"?xt=urn:btih:efaccba407ec0c14dba77cd3b9e26cfb83e6603a&amp;dn=Broken.Horses.2015.WEBRip.480p.x264.AAC-VYTO+%5BP2PDL%5D&amp;tr=udp%3A%2F%2Ftracker.openbittorrent.com%3A80&amp;tr=udp%3A%2F%2Fopen.demonii.com%3A1337&amp;tr=udp%3A%2F%2Ftracker.coppersurfer.tk%3A6969&amp;tr=udp%3A%2F%2Fexodus.desync.com%3A6969","seeders":0,"leechers":1,"uploader":"ValidusVyto","files":6,"time":1441180855,"description":"____    ____ ____    ____ .___________.  ______   \n     /   /      /   / |           | /  __    \n    /   /      /   /  `---|  |----`|  |  |  | \n        /     _    _/       |  |     |  |  |  | \n       /        |  |         |  |     |  `--'  | \n    __/         |__|         |__|      ______/  \n                                                  \nPresenting Small Encodes with quality for years!\n                                                                                                   \n                                                                                                   \n\nBroken.Horses.2015.WEBRip.480p.x264.AAC-VYTO\n\n\nGenre: Action, Crime, Drama  &lt;a href=&quot;\nhttp://www.imdb.com/title/tt2503954/&quot; rel=&quot;nofollow&quot; target=&quot;_NEW&quot;&gt;\nhttp://www.imdb.com/title/tt2503954/&lt;/a&gt;\n\n\nGeneral\nFormat                         : MPEG-4\nFile size                      : 351 MiB\nDuration                       : 1h 40mn\nOverall bit rate               : 488 Kbps\n\nVideo\nFormat                         : AVC\nBit rate                       : 453 Kbps\nWidth                          : 720 pixels\nHeight                         : 304 pixels\nDisplay aspect ratio           : 2.35:1\nFrame rate mode                : Constant\nChroma subsampling             : 4:2:0\nBit depth                      : 8 bits\nStream size                    : 326 MiB (93%)\nWriting library                : x264 core 148 r2597\n\nAudio\nFormat                         : AAC\nBit rate mode                  : Variable\nBit rate                       : 32.0 Kbps\nChannel(s)                     : 2 channels \nChannel positions              : Front: L R \nSampling rate                  : 48.0 KHz \nStream size                    : 23.0 MiB (7%)\nLanguage                       : English\n\nSubtitle                       : N/a\nSource                     \t   : 1080p.WEB-DL.DD5.1.H264-RK\n\nScreenshots:\n &lt;a href=&quot;\nhttp://ititli.com/Vq&quot; rel=&quot;nofollow&quot; target=&quot;_NEW&quot;&gt;\nhttp://ititli.com/Vq&lt;/a&gt; &lt;a href=&quot;\nhttp://ititli.com/Vr&quot; rel=&quot;nofollow&quot; target=&quot;_NEW&quot;&gt;\nhttp://ititli.com/Vr&lt;/a&gt; &lt;a href=&quot;\nhttp://ititli.com/V1&quot; rel=&quot;nofollow&quot; target=&quot;_NEW&quot;&gt;\nhttp://ititli.com/V1&lt;/a&gt; &lt;a href=&quot;\nhttp://ititli.com/VT&quot; rel=&quot;nofollow&quot; target=&quot;_NEW&quot;&gt;\nhttp://ititli.com/VT&lt;/a&gt; &lt;a href=&quot;\nhttp://ititli.com/VW&quot; rel=&quot;nofollow&quot; target=&quot;_NEW&quot;&gt;\nhttp://ititli.com/VW&lt;/a&gt; &lt;a href=&quot;\nhttp://ititli.com/Vg&quot; rel=&quot;nofollow&quot; target=&quot;_NEW&quot;&gt;\nhttp://ititli.com/Vg&lt;/a&gt; &lt;a href=&quot;\nhttp://ititli.com/Vn&quot; rel=&quot;nofollow&quot; target=&quot;_NEW&quot;&gt;\nhttp://ititli.com/Vn&lt;/a&gt; &lt;a href=&quot;\nhttp://ititli.com/Vw&quot; rel=&quot;nofollow&quot; target=&quot;_NEW&quot;&gt;\nhttp://ititli.com/Vw&lt;/a&gt; &lt;a href=&quot;\nhttp://ititli.com/V2&quot; rel=&quot;nofollow&quot; target=&quot;_NEW&quot;&gt;\nhttp://ititli.com/V2&lt;/a&gt;\n\n----------------------------------------------------------------------------------------------------\n\n\nEncoder Notes: Looking For Early Access To Anything You Can Provide DVDScr, R5, DVDR, BluRay, Direct\nAudio, Music Releases and Seedboxes. If You Got anything to offer please contact us.\n\nSupport us by donating BC - 1FgwdzPsd1y25Gea8wP1qni35uGCtmkRCD","torrent":{"xt":"urn:btih:efaccba407ec0c14dba77cd3b9e26cfb83e6603a","amp;dn":"Broken.Horses.2015.WEBRip.480p.x264.AAC-VYTO+%5BP2PDL%5D","amp;tr":["udp%3A%2F%2Ftracker.openbittorrent.com%3A80","udp%3A%2F%2Fopen.demonii.com%3A1337","udp%3A%2F%2Ftracker.coppersurfer.tk%3A6969","udp%3A%2F%2Fexodus.desync.com%3A6969"],"infoHash":"efaccba407ec0c14dba77cd3b9e26cfb83e6603a","infoHashBuffer":{"type":"Buffer","data":[239,172,203,164,7,236,12,20,219,167,124,211,185,226,108,251,131,230,96,58]},"announce":[],"urlList":[]}}